<svg width="32" height="33" viewBox="0 0 32 33" fill="none" xmlns="http://www.w3.org/2000/svg">
<path d="M29 28.5H26V4.5H27C27.2652 4.5 27.5196 4.39464 27.7071 4.20711C27.8946 4.01957 28 3.76522 28 3.5C28 3.23478 27.8946 2.98043 27.7071 2.79289C27.5196 2.60536 27.2652 2.5 27 2.5H5C4.73478 2.5 4.48043 2.60536 4.29289 2.79289C4.10536 2.98043 4 3.23478 4 3.5C4 3.76522 4.10536 4.01957 4.29289 4.20711C4.48043 4.39464 4.73478 4.5 5 4.5H6V28.5H3C2.73478 28.5 2.48043 28.6054 2.29289 28.7929C2.10536 28.9804 2 29.2348 2 29.5C2 29.7652 2.10536 30.0196 2.29289 30.2071C2.48043 30.3946 2.73478 30.5 3 30.5H29C29.2652 30.5 29.5196 30.3946 29.7071 30.2071C29.8946 30.0196 30 29.7652 30 29.5C30 29.2348 29.8946 28.9804 29.7071 28.7929C29.5196 28.6054 29.2652 28.5 29 28.5ZM8 4.5H24V28.5H20V23.5C20 23.2348 19.8946 22.9804 19.7071 22.7929C19.5196 22.6054 19.2652 22.5 19 22.5H13C12.7348 22.5 12.4804 22.6054 12.2929 22.7929C12.1054 22.9804 12 23.2348 12 23.5V28.5H8V4.5ZM18 28.5H14V24.5H18V28.5ZM11 8.5C11 8.23478 11.1054 7.98043 11.2929 7.79289C11.4804 7.60536 11.7348 7.5 12 7.5H14C14.2652 7.5 14.5196 7.60536 14.7071 7.79289C14.8946 7.98043 15 8.23478 15 8.5C15 8.76522 14.8946 9.01957 14.7071 9.20711C14.5196 9.39464 14.2652 9.5 14 9.5H12C11.7348 9.5 11.4804 9.39464 11.2929 9.20711C11.1054 9.01957 11 8.76522 11 8.5ZM17 8.5C17 8.23478 17.1054 7.98043 17.2929 7.79289C17.4804 7.60536 17.7348 7.5 18 7.5H20C20.2652 7.5 20.5196 7.60536 20.7071 7.79289C20.8946 7.98043 21 8.23478 21 8.5C21 8.76522 20.8946 9.01957 20.7071 9.20711C20.5196 9.39464 20.2652 9.5 20 9.5H18C17.7348 9.5 17.4804 9.39464 17.2929 9.20711C17.1054 9.01957 17 8.76522 17 8.5ZM11 13.5C11 13.2348 11.1054 12.9804 11.2929 12.7929C11.4804 12.6054 11.7348 12.5 12 12.5H14C14.2652 12.5 14.5196 12.6054 14.7071 12.7929C14.8946 12.9804 15 13.2348 15 13.5C15 13.7652 14.8946 14.0196 14.7071 14.2071C14.5196 14.3946 14.2652 14.5 14 14.5H12C11.7348 14.5 11.4804 14.3946 11.2929 14.2071C11.1054 14.0196 11 13.7652 11 13.5ZM17 13.5C17 13.2348 17.1054 12.9804 17.2929 12.7929C17.4804 12.6054 17.7348 12.5 18 12.5H20C20.2652 12.5 20.5196 12.6054 20.7071 12.7929C20.8946 12.9804 21 13.2348 21 13.5C21 13.7652 20.8946 14.0196 20.7071 14.2071C20.5196 14.3946 20.2652 14.5 20 14.5H18C17.7348 14.5 17.4804 14.3946 17.2929 14.2071C17.1054 14.0196 17 13.7652 17 13.5ZM11 18.5C11 18.2348 11.1054 17.9804 11.2929 17.7929C11.4804 17.6054 11.7348 17.5 12 17.5H14C14.2652 17.5 14.5196 17.6054 14.7071 17.7929C14.8946 17.9804 15 18.2348 15 18.5C15 18.7652 14.8946 19.0196 14.7071 19.2071C14.5196 19.3946 14.2652 19.5 14 19.5H12C11.7348 19.5 11.4804 19.3946 11.2929 19.2071C11.1054 19.0196 11 18.7652 11 18.5ZM17 18.5C17 18.2348 17.1054 17.9804 17.2929 17.7929C17.4804 17.6054 17.7348 17.5 18 17.5H20C20.2652 17.5 20.5196 17.6054 20.7071 17.7929C20.8946 17.9804 21 18.2348 21 18.5C21 18.7652 20.8946 19.0196 20.7071 19.2071C20.5196 19.3946 20.2652 19.5 20 19.5H18C17.7348 19.5 17.4804 19.3946 17.2929 19.2071C17.1054 19.0196 17 18.7652 17 18.5Z" fill="#FF9016"/>
</svg>
