<svg width="18" height="18" viewBox="0 0 18 18" fill="none" xmlns="http://www.w3.org/2000/svg">
<path d="M11.8125 10.6874C11.8125 10.8366 11.7532 10.9797 11.6477 11.0851C11.5423 11.1906 11.3992 11.2499 11.25 11.2499H6.75C6.60082 11.2499 6.45774 11.1906 6.35225 11.0851C6.24676 10.9797 6.1875 10.8366 6.1875 10.6874C6.1875 10.5382 6.24676 10.3951 6.35225 10.2896C6.45774 10.1842 6.60082 10.1249 6.75 10.1249H11.25C11.3992 10.1249 11.5423 10.1842 11.6477 10.2896C11.7532 10.3951 11.8125 10.5382 11.8125 10.6874ZM11.25 7.8749H6.75C6.60082 7.8749 6.45774 7.93416 6.35225 8.03965C6.24676 8.14514 6.1875 8.28821 6.1875 8.4374C6.1875 8.58658 6.24676 8.72966 6.35225 8.83515C6.45774 8.94063 6.60082 8.9999 6.75 8.9999H11.25C11.3992 8.9999 11.5423 8.94063 11.6477 8.83515C11.7532 8.72966 11.8125 8.58658 11.8125 8.4374C11.8125 8.28821 11.7532 8.14514 11.6477 8.03965C11.5423 7.93416 11.3992 7.8749 11.25 7.8749ZM15.1875 3.3749V15.1874C15.1875 15.4858 15.069 15.7719 14.858 15.9829C14.647 16.1939 14.3609 16.3124 14.0625 16.3124H3.9375C3.63913 16.3124 3.35298 16.1939 3.142 15.9829C2.93103 15.7719 2.8125 15.4858 2.8125 15.1874V3.3749C2.8125 3.07653 2.93103 2.79038 3.142 2.5794C3.35298 2.36842 3.63913 2.2499 3.9375 2.2499H6.48703C6.80309 1.89603 7.19032 1.61291 7.62337 1.41906C8.05643 1.22521 8.52554 1.125 9 1.125C9.47446 1.125 9.94357 1.22521 10.3766 1.41906C10.8097 1.61291 11.1969 1.89603 11.513 2.2499H14.0625C14.3609 2.2499 14.647 2.36842 14.858 2.5794C15.069 2.79038 15.1875 3.07653 15.1875 3.3749ZM6.75 4.4999H11.25C11.25 3.90316 11.0129 3.33086 10.591 2.90891C10.169 2.48695 9.59674 2.2499 9 2.2499C8.40326 2.2499 7.83097 2.48695 7.40901 2.90891C6.98705 3.33086 6.75 3.90316 6.75 4.4999ZM14.0625 3.3749H12.1816C12.3096 3.73618 12.375 4.11663 12.375 4.4999V5.0624C12.375 5.21158 12.3157 5.35466 12.2102 5.46015C12.1048 5.56563 11.9617 5.6249 11.8125 5.6249H6.1875C6.03832 5.6249 5.89524 5.56563 5.78975 5.46015C5.68426 5.35466 5.625 5.21158 5.625 5.0624V4.4999C5.62501 4.11663 5.6904 3.73618 5.81836 3.3749H3.9375V15.1874H14.0625V3.3749Z" fill="#212121"/>
</svg>
