<svg width="18" height="18" viewBox="0 0 18 18" fill="none" xmlns="http://www.w3.org/2000/svg">
<path d="M8.99317 1.49902C8.57917 1.49902 8.24317 1.8348 8.24317 2.24902V10.1705L5.99317 7.94453L4.93866 8.99903L8.45392 12.5383C8.74717 12.8308 9.23917 12.8308 9.53242 12.5383L13.0477 8.99903L11.9932 7.94453L9.74317 10.1705V2.24902C9.74317 1.8348 9.40717 1.49895 8.99317 1.49902ZM2.99316 10.499C2.57916 10.499 2.24316 10.835 2.24316 11.249V12.749C2.24316 14.4058 3.58642 15.749 5.24317 15.749H12.7432C14.3999 15.749 15.7432 14.4058 15.7432 12.749V11.249C15.7432 10.835 15.4072 10.499 14.9932 10.499C14.5792 10.499 14.2432 10.835 14.2432 11.249V12.749C14.2432 13.5778 13.5719 14.249 12.7432 14.249H5.24317C4.41442 14.249 3.74317 13.5778 3.74317 12.749V11.249C3.74317 10.835 3.40717 10.499 2.99316 10.499Z" fill="#616161"/>
</svg>
