<svg width="16" height="17" viewBox="0 0 16 17" fill="currentColor" xmlns="http://www.w3.org/2000/svg">
<path d="M10.765 6.735C10.8352 6.80531 10.8747 6.90062 10.8747 7C10.8747 7.09938 10.8352 7.19469 10.765 7.265L7.265 10.765C7.19469 10.8352 7.09938 10.8747 7 10.8747C6.90062 10.8747 6.80531 10.8352 6.735 10.765L5.235 9.265C5.16876 9.19391 5.1327 9.09989 5.13441 9.00274C5.13613 8.90559 5.17548 8.8129 5.24419 8.74419C5.3129 8.67548 5.40559 8.63613 5.50274 8.63441C5.59989 8.6327 5.69391 8.66876 5.765 8.735L7 9.96937L10.235 6.735C10.3053 6.66477 10.4006 6.62533 10.5 6.62533C10.5994 6.62533 10.6947 6.66477 10.765 6.735ZM14.375 8.5C14.375 9.76086 14.0011 10.9934 13.3006 12.0418C12.6001 13.0901 11.6045 13.9072 10.4396 14.3897C9.27473 14.8722 7.99293 14.9985 6.7563 14.7525C5.51967 14.5065 4.38375 13.8994 3.49219 13.0078C2.60063 12.1162 1.99347 10.9803 1.74749 9.7437C1.50151 8.50707 1.62776 7.22527 2.11027 6.06039C2.59278 4.89551 3.40988 3.89988 4.45824 3.19938C5.5066 2.49889 6.73914 2.125 8 2.125C9.69015 2.12698 11.3105 2.79927 12.5056 3.99439C13.7007 5.1895 14.373 6.80985 14.375 8.5ZM13.625 8.5C13.625 7.38748 13.2951 6.29994 12.677 5.37492C12.0589 4.44989 11.1804 3.72892 10.1526 3.30318C9.12476 2.87743 7.99376 2.76604 6.90262 2.98308C5.81147 3.20012 4.80919 3.73585 4.02252 4.52252C3.23585 5.30919 2.70012 6.31147 2.48308 7.40262C2.26604 8.49376 2.37743 9.62476 2.80318 10.6526C3.22892 11.6804 3.94989 12.5589 4.87492 13.177C5.79994 13.7951 6.88748 14.125 8 14.125C9.49134 14.1233 10.9211 13.5302 11.9756 12.4756C13.0302 11.4211 13.6233 9.99134 13.625 8.5Z" fill="currentColor"/>
</svg>
