<svg width="14" height="14" viewBox="0 0 14 14" fill="none" xmlns="http://www.w3.org/2000/svg">
<path d="M13.722 6.59549C13.1727 5.43831 12.519 4.49456 11.761 3.76424L10.966 4.55924C11.6143 5.17878 12.179 5.98924 12.6673 6.99862C11.3673 9.68925 9.52196 10.9674 7.00009 10.9674C6.24311 10.9674 5.54587 10.8508 4.90837 10.6177L4.04696 11.4791C4.93238 11.8879 5.91676 12.0924 7.00009 12.0924C10.0032 12.0924 12.2438 10.5283 13.722 7.40018C13.7814 7.27438 13.8122 7.13697 13.8122 6.99784C13.8122 6.85871 13.7814 6.7213 13.722 6.59549V6.59549ZM12.7287 1.58549L12.0626 0.918619C12.051 0.906997 12.0372 0.897777 12.022 0.891486C12.0068 0.885196 11.9906 0.881958 11.9742 0.881958C11.9577 0.881958 11.9415 0.885196 11.9263 0.891486C11.9111 0.897777 11.8973 0.906997 11.8857 0.918619L10.1768 2.62674C9.23462 2.14549 8.17571 1.90487 7.00009 1.90487C3.99696 1.90487 1.75634 3.46893 0.278215 6.59706C0.218802 6.72286 0.187988 6.86027 0.187988 6.9994C0.187988 7.13853 0.218802 7.27594 0.278215 7.40174C0.868736 8.64549 1.57967 9.64242 2.41103 10.3925L0.75759 12.0455C0.734166 12.0689 0.721008 12.1007 0.721008 12.1339C0.721008 12.167 0.734166 12.1988 0.75759 12.2222L1.42462 12.8892C1.44806 12.9127 1.47984 12.9258 1.51298 12.9258C1.54612 12.9258 1.5779 12.9127 1.60134 12.8892L12.7287 1.76237C12.7403 1.75076 12.7495 1.73697 12.7558 1.7218C12.7621 1.70662 12.7653 1.69036 12.7653 1.67393C12.7653 1.6575 12.7621 1.64124 12.7558 1.62606C12.7495 1.61089 12.7403 1.5971 12.7287 1.58549ZM1.3329 6.99862C2.63447 4.30799 4.47978 3.02987 7.00009 3.02987C7.85228 3.02987 8.62712 3.17612 9.33009 3.47346L8.23165 4.5719C7.71145 4.29434 7.1158 4.19133 6.5326 4.27807C5.94939 4.3648 5.4095 4.63668 4.99258 5.05361C4.57565 5.47053 4.30377 6.01042 4.21704 6.59363C4.1303 7.17683 4.23331 7.77248 4.51087 8.29268L3.20743 9.59612C2.48603 8.9594 1.86415 8.09674 1.3329 6.99862ZM5.18759 6.99862C5.18786 6.7231 5.25313 6.45152 5.37808 6.20596C5.50302 5.96039 5.68414 5.74777 5.9067 5.58535C6.12926 5.42294 6.387 5.31531 6.65898 5.27122C6.93095 5.22712 7.20949 5.24781 7.47196 5.33159L5.27056 7.533C5.21538 7.36024 5.18739 7.17997 5.18759 6.99862V6.99862Z" fill="black" fill-opacity="0.45"/>
<path d="M6.93786 8.75103C6.8838 8.75103 6.83052 8.74853 6.7777 8.74369L5.95239 9.569C6.44878 9.7591 6.98961 9.80135 7.5095 9.69063C8.02939 9.57991 8.50608 9.32097 8.88194 8.94511C9.2578 8.56925 9.51674 8.09256 9.62746 7.57267C9.73817 7.05279 9.69593 6.51196 9.50583 6.01556L8.68052 6.84088C8.68536 6.89369 8.68786 6.94697 8.68786 7.00103C8.68798 7.23088 8.6428 7.4585 8.5549 7.67087C8.467 7.88325 8.3381 8.07622 8.17557 8.23875C8.01304 8.40127 7.82008 8.53017 7.6077 8.61807C7.39533 8.70598 7.16771 8.75116 6.93786 8.75103V8.75103Z" fill="black" fill-opacity="0.45"/>
</svg>
