<svg width="24" height="24" viewBox="0 0 24 24" fill="none" xmlns="http://www.w3.org/2000/svg">
<g clip-path="url(#clip0_550_1795)">
<path d="M8.7 18.0001H3C1.507 18.0001 0 16.8661 0 14.3341V9.29413C0.0210272 6.99631 0.881427 4.78544 2.41918 3.07788C3.95693 1.37031 6.06592 0.283865 8.349 0.0231331C9.63736 -0.0703926 10.9308 0.114515 12.1413 0.56529C13.3518 1.01607 14.4512 1.72215 15.3646 2.63555C16.278 3.54896 16.9841 4.64828 17.4348 5.85883C17.8856 7.06938 18.0705 8.36277 17.977 9.65113C17.7159 11.9352 16.6286 14.0448 14.9198 15.5827C13.211 17.1205 10.9988 17.9804 8.7 18.0001ZM20 9.08013H19.988C19.988 9.31713 19.988 9.55413 19.976 9.79213C19.59 15.2001 14.647 19.7781 9.084 19.9811V19.9961C9.78461 21.2112 10.7924 22.2208 12.0062 22.9236C13.2201 23.6263 14.5974 23.9976 16 24.0001H21C21.7956 24.0001 22.5587 23.6841 23.1213 23.1215C23.6839 22.5588 24 21.7958 24 21.0001V16.0001C23.9986 14.5972 23.6282 13.2194 22.9262 12.0048C22.2241 10.7902 21.215 9.78159 20 9.08013Z" fill="white"/>
</g>
<defs>
<clipPath id="clip0_550_1795">
<rect width="24" height="24" fill="white"/>
</clipPath>
</defs>
</svg>
