<svg width="current" height="current" viewBox="0 0 12 13" fill="none" xmlns="http://www.w3.org/2000/svg">
<path d="M6.40168 1.6792H5.59811C5.52668 1.6792 5.49097 1.71491 5.49097 1.78634V5.9917H1.50021C1.42878 5.9917 1.39307 6.02741 1.39307 6.09884V6.90241C1.39307 6.97384 1.42878 7.00956 1.50021 7.00956H5.49097V11.2149C5.49097 11.2863 5.52668 11.3221 5.59811 11.3221H6.40168C6.47311 11.3221 6.50882 11.2863 6.50882 11.2149V7.00956H10.5002C10.5716 7.00956 10.6074 6.97384 10.6074 6.90241V6.09884C10.6074 6.02741 10.5716 5.9917 10.5002 5.9917H6.50882V1.78634C6.50882 1.71491 6.47311 1.6792 6.40168 1.6792Z" fill="current" fill-opacity="0.85"/>
</svg>
