<svg width="18" height="18" viewBox="0 0 18 18" fill="none" xmlns="http://www.w3.org/2000/svg">
<path d="M9 1.6875C7.55373 1.6875 6.13993 2.11637 4.9374 2.91988C3.73486 3.72339 2.7976 4.86544 2.24413 6.20163C1.69067 7.53781 1.54586 9.00811 1.82801 10.4266C2.11017 11.8451 2.80661 13.148 3.82928 14.1707C4.85196 15.1934 6.15492 15.8898 7.57341 16.172C8.99189 16.4541 10.4622 16.3093 11.7984 15.7559C13.1346 15.2024 14.2766 14.2651 15.0801 13.0626C15.8836 11.8601 16.3125 10.4463 16.3125 9C16.3105 7.06123 15.5394 5.20246 14.1685 3.83154C12.7975 2.46063 10.9388 1.68955 9 1.6875ZM9 15.1875C7.77623 15.1875 6.57994 14.8246 5.56241 14.1447C4.54488 13.4648 3.75182 12.4985 3.2835 11.3679C2.81518 10.2372 2.69265 8.99314 2.93139 7.79288C3.17014 6.59262 3.75944 5.49011 4.62478 4.62478C5.49012 3.75944 6.59262 3.17014 7.79288 2.93139C8.99314 2.69265 10.2372 2.81518 11.3679 3.2835C12.4985 3.75181 13.4648 4.54488 14.1447 5.56241C14.8246 6.57994 15.1875 7.77623 15.1875 9C15.1856 10.6405 14.5331 12.2132 13.3732 13.3732C12.2132 14.5331 10.6405 15.1856 9 15.1875ZM12.375 9C12.375 9.14918 12.3157 9.29226 12.2103 9.39775C12.1048 9.50324 11.9617 9.5625 11.8125 9.5625H9.5625V11.8125C9.5625 11.9617 9.50324 12.1048 9.39775 12.2102C9.29226 12.3157 9.14919 12.375 9 12.375C8.85082 12.375 8.70774 12.3157 8.60226 12.2102C8.49677 12.1048 8.4375 11.9617 8.4375 11.8125V9.5625H6.1875C6.03832 9.5625 5.89524 9.50324 5.78976 9.39775C5.68427 9.29226 5.625 9.14918 5.625 9C5.625 8.85082 5.68427 8.70774 5.78976 8.60225C5.89524 8.49676 6.03832 8.4375 6.1875 8.4375H8.4375V6.1875C8.4375 6.03832 8.49677 5.89524 8.60226 5.78975C8.70774 5.68426 8.85082 5.625 9 5.625C9.14919 5.625 9.29226 5.68426 9.39775 5.78975C9.50324 5.89524 9.5625 6.03832 9.5625 6.1875V8.4375H11.8125C11.9617 8.4375 12.1048 8.49676 12.2103 8.60225C12.3157 8.70774 12.375 8.85082 12.375 9Z" fill="#616161"/>
</svg>
