<svg width="16" height="16" viewBox="0 0 16 16" fill="none" xmlns="http://www.w3.org/2000/svg">
<path d="M6.21655 0.859375C7.64671 0.859447 8.99304 1.41641 10.0037 2.42871C11.0144 3.44121 11.573 4.78465 11.573 6.2168C11.5729 7.41301 11.1841 8.55023 10.4646 9.48047L15.1023 14.1182C15.1159 14.1317 15.1262 14.1483 15.1335 14.166C15.1409 14.1837 15.1452 14.2025 15.1453 14.2217C15.1453 14.2409 15.1409 14.2605 15.1335 14.2783C15.1262 14.2958 15.1157 14.3118 15.1023 14.3252L14.323 15.1025C14.3095 15.1159 14.2936 15.1265 14.2761 15.1338C14.2584 15.1412 14.2387 15.1455 14.2195 15.1455C14.2004 15.1455 14.1815 15.1411 14.1638 15.1338C14.1461 15.1264 14.1296 15.1161 14.116 15.1025L9.47925 10.4668C8.54896 11.1846 7.41288 11.5732 6.21655 11.5732C4.78441 11.5732 3.43918 11.0164 2.42847 10.0039C1.41795 8.99328 0.859204 7.64695 0.859131 6.2168C0.859131 4.78465 1.41597 3.43943 2.42847 2.42871C3.43918 1.418 4.7862 0.859375 6.21655 0.859375ZM6.21655 2.2168C5.1487 2.2168 4.14459 2.63234 3.38745 3.3877C2.63209 4.14305 2.21655 5.14894 2.21655 6.2168C2.21663 7.28445 2.63229 8.28787 3.38745 9.04492C4.14459 9.80028 5.1487 10.2168 6.21655 10.2168C7.28431 10.2167 8.2876 9.80021 9.04468 9.04492C9.79997 8.28963 10.2165 7.28455 10.2166 6.2168C10.2166 5.14894 9.80004 4.14484 9.04468 3.3877C8.28941 2.63075 7.28421 2.21687 6.21655 2.2168Z" fill="black" fill-opacity="0.45"/>
</svg>
