<svg width="32" height="32" viewBox="0 0 32 32" fill="none" xmlns="http://www.w3.org/2000/svg">
<path d="M28.374 24.9815C27.7003 23.3857 26.7226 21.9361 25.4954 20.7136C24.272 19.4876 22.8227 18.5101 21.2275 17.8351C21.2133 17.8279 21.199 17.8244 21.1847 17.8172C23.4097 16.2101 24.8561 13.5922 24.8561 10.6386C24.8561 5.74578 20.8918 1.78149 15.999 1.78149C11.1061 1.78149 7.14183 5.74578 7.14183 10.6386C7.14183 13.5922 8.58826 16.2101 10.8133 17.8208C10.799 17.8279 10.7847 17.8315 10.7704 17.8386C9.1704 18.5136 7.73469 19.4815 6.50255 20.7172C5.27651 21.9407 4.29899 23.39 3.62397 24.9851C2.96084 26.5467 2.60319 28.2209 2.5704 29.9172C2.56945 29.9553 2.57613 29.9933 2.59007 30.0287C2.604 30.0642 2.62489 30.0966 2.65152 30.1239C2.67814 30.1512 2.70996 30.1729 2.7451 30.1877C2.78024 30.2025 2.81799 30.2101 2.85612 30.2101H4.99897C5.15612 30.2101 5.28112 30.0851 5.28469 29.9315C5.35612 27.1744 6.46326 24.5922 8.4204 22.6351C10.4454 20.6101 13.1347 19.4958 15.999 19.4958C18.8633 19.4958 21.5525 20.6101 23.5775 22.6351C25.5347 24.5922 26.6418 27.1744 26.7133 29.9315C26.7168 30.0886 26.8418 30.2101 26.999 30.2101H29.1418C29.18 30.2101 29.2177 30.2025 29.2528 30.1877C29.288 30.1729 29.3198 30.1512 29.3464 30.1239C29.3731 30.0966 29.394 30.0642 29.4079 30.0287C29.4218 29.9933 29.4285 29.9553 29.4275 29.9172C29.3918 28.2101 29.0383 26.5494 28.374 24.9815ZM15.999 16.7815C14.3597 16.7815 12.8168 16.1422 11.6561 14.9815C10.4954 13.8208 9.85612 12.2779 9.85612 10.6386C9.85612 8.99935 10.4954 7.45649 11.6561 6.29578C12.8168 5.13507 14.3597 4.49578 15.999 4.49578C17.6383 4.49578 19.1811 5.13507 20.3418 6.29578C21.5025 7.45649 22.1418 8.99935 22.1418 10.6386C22.1418 12.2779 21.5025 13.8208 20.3418 14.9815C19.1811 16.1422 17.6383 16.7815 15.999 16.7815Z" fill="white"/>
</svg>
